<svg viewBox="0 0 48 48" fill="none" xmlns="http://www.w3.org/2000/svg">
  <path d="M25 6C35 6 40.5 12 40 20C39.5 26.5 36 29.5 29.5 30.5V42H20.5V30.5C14 29.5 10.5 25.5 11 19C11.5 12 17 6 25 6Z" stroke="currentColor" stroke-width="2.25" stroke-linejoin="round"/>
  <path d="M11 19.5C4.5 16.5 2 22.5 3.5 29C5 35.5 11 39 17.5 36.5C21 35 21.5 30 19 25.5C17 22 13.5 20 11 19.5Z" stroke="currentColor" stroke-width="2.25" stroke-linejoin="round"/>
  <path d="M25 9.5V27.5" stroke="currentColor" stroke-width="1.75" stroke-linecap="round"/>
  <path d="M21 12.5V24.5" stroke="currentColor" stroke-width="1.5" stroke-linecap="round"/>
  <path d="M29 12.5V24.5" stroke="currentColor" stroke-width="1.5" stroke-linecap="round"/>
  <path d="M20.5 37H29.5" stroke="currentColor" stroke-width="1.75" stroke-linecap="round"/>
</svg>
