<svg viewBox="0 0 48 48" fill="none" xmlns="http://www.w3.org/2000/svg">
  <path d="M24 7.5C33 7.5 37.5 10.5 37.5 14.5V21.5C37.5 24.5 35.5 27 32.5 27.5H15.5C12.5 27 10.5 24.5 10.5 21.5V14.5C10.5 10.5 15 7.5 24 7.5Z" stroke="currentColor" stroke-width="2.25" stroke-linejoin="round"/>
  <path d="M17 15a1 1 0 1 0 2 0 1 1 0 0 0-2 0M23 15a1 1 0 1 0 2 0 1 1 0 0 0-2 0M29 15a1 1 0 1 0 2 0 1 1 0 0 0-2 0M17 20a1 1 0 1 0 2 0 1 1 0 0 0-2 0M23 20a1 1 0 1 0 2 0 1 1 0 0 0-2 0M29 20a1 1 0 1 0 2 0 1 1 0 0 0-2 0" stroke="currentColor" stroke-width="1.5"/>
  <path d="M17.5 27.5H30.5" stroke="currentColor" stroke-width="2" stroke-linecap="round"/>
  <path d="M24 27.5V40.5" stroke="currentColor" stroke-width="3" stroke-linecap="round"/>
  <path d="M21.5 36h5" stroke="currentColor" stroke-width="1.5" stroke-linecap="round"/>
  <path d="M20 40.5h8" stroke="currentColor" stroke-width="2.25" stroke-linecap="round"/>
</svg>
